# xmcd
#
# Track frame offsets:
#	150
#	29072
#	46772
#	70940
#	96867
#	122395
#	141632
#	164437
#	195287
#	217860
#
# Disc length: 3230 seconds
#
# Revision: 1
# Processed by: cddbd v1.5.2PL0 Copyright (c) Steve Scherf et al.
# Submitted via: EasyCDDAExtractor 16.0.6.1
#
DISCID=8a0c9c0a
DTITLE=Bao Yen - Mua chieu ky niem
DYEAR=1999
DGENRE=
TTITLE0=Huyen thoai mot chieu mua
TTITLE1=Duong ve khuya
TTITLE2=Chuyen mot chiec cau da gay
TTITLE3=Gap nhau
TTITLE4=Mua chieu ky niem
TTITLE5=Khong bao gio ngan cach
TTITLE6=Tuyet trang
TTITLE7=Hai vi sao lac
TTITLE8=Dem dai chien tuyen
TTITLE9=Ta ao cuoi
EXTD=
EXTT0=
EXTT1=
EXTT2=
EXTT3=
EXTT4=
EXTT5=
EXTT6=
EXTT7=
EXTT8=
EXTT9=
PLAYORDER=
